<svg width="910" height="133" viewBox="0 0 910 133" fill="none" xmlns="http://www.w3.org/2000/svg">
<path d="M2.69318 133V107.432L51.5284 67.0341C54.767 64.3494 57.5369 61.8352 59.8381 59.4915C62.1818 57.1051 63.9716 54.6548 65.2074 52.1406C66.4858 49.6264 67.125 46.8352 67.125 43.767C67.125 40.4006 66.4006 37.5241 64.9517 35.1378C63.5455 32.7514 61.5852 30.919 59.071 29.6406C56.5568 28.3196 53.6591 27.6591 50.3778 27.6591C47.0966 27.6591 44.1989 28.3196 41.6847 29.6406C39.2131 30.9616 37.2955 32.9006 35.9318 35.4574C34.5682 38.0142 33.8864 41.125 33.8864 44.7898H0.136364C0.136364 35.5852 2.20313 27.6591 6.33665 21.0114C10.4702 14.3636 16.3082 9.25 23.8509 5.67045C31.3935 2.09091 40.2358 0.301131 50.3778 0.301131C60.8608 0.301131 69.9375 1.98437 77.608 5.35085C85.321 8.67472 91.2656 13.3622 95.4418 19.4134C99.6605 25.4645 101.77 32.5597 101.77 40.6989C101.77 45.7273 100.726 50.7344 98.6378 55.7202C96.5497 60.6633 92.7997 66.1392 87.3878 72.1477C81.9759 78.1562 74.2841 85.3153 64.3125 93.625L52.0398 103.852V104.619H103.176V133H2.69318ZM115.225 30.7273V2.09091H229.004V30.7273H189.629V133H154.6V30.7273H115.225ZM242.379 133V2.09091H298.885C308.6 2.09091 317.102 3.85937 324.389 7.3963C331.676 10.9332 337.343 16.0256 341.392 22.6733C345.44 29.321 347.464 37.2898 347.464 46.5795C347.464 55.9545 345.376 63.8594 341.2 70.294C337.066 76.7287 331.25 81.5866 323.75 84.8679C316.292 88.1491 307.578 89.7898 297.606 89.7898H263.856V62.1761H290.447C294.623 62.1761 298.181 61.6648 301.122 60.642C304.105 59.5767 306.385 57.8935 307.961 55.5923C309.581 53.2912 310.39 50.2869 310.39 46.5795C310.39 42.8295 309.581 39.7827 307.961 37.4389C306.385 35.0526 304.105 33.3054 301.122 32.1974C298.181 31.0469 294.623 30.4716 290.447 30.4716H277.919V133H242.379ZM319.083 72.9148L351.811 133H313.203L281.243 72.9148H319.083ZM396.619 133H358.267L401.477 2.09091H450.056L493.267 133H454.914L426.278 38.142H425.255L396.619 133ZM389.46 81.3523H461.562V107.943H389.46V81.3523ZM541.415 2.09091V133H505.875V2.09091H541.415ZM671.525 2.09091V133H641.866L594.565 64.2216H593.798V133H558.258V2.09091H588.428L634.962 70.6136H635.985V2.09091H671.525ZM688.336 133V2.09091H782.683V30.7273H723.876V53.2273H777.825V81.8636H723.876V104.364H782.427V133H688.336ZM800.309 133V2.09091H856.814C866.53 2.09091 875.032 3.85937 882.319 7.3963C889.605 10.9332 895.273 16.0256 899.321 22.6733C903.37 29.321 905.394 37.2898 905.394 46.5795C905.394 55.9545 903.306 63.8594 899.13 70.294C894.996 76.7287 889.179 81.5866 881.679 84.8679C874.222 88.1491 865.507 89.7898 855.536 89.7898H821.786V62.1761H848.377C852.553 62.1761 856.111 61.6648 859.051 60.642C862.034 59.5767 864.314 57.8935 865.891 55.5923C867.51 53.2912 868.32 50.2869 868.32 46.5795C868.32 42.8295 867.51 39.7827 865.891 37.4389C864.314 35.0526 862.034 33.3054 859.051 32.1974C856.111 31.0469 852.553 30.4716 848.377 30.4716H835.848V133H800.309ZM877.013 72.9148L909.74 133H871.132L839.172 72.9148H877.013Z" fill="black"/>
</svg>
