<svg width="500" height="500" viewBox="0 0 338 338" fill="none" xmlns="http://www.w3.org/2000/svg">
<g clip-path="url(#clip0_1_1711)">
<rect width="500" height="500" rx="15" fill="#FF790B"/>
<path d="M-4.47727 271V231.227L71.4886 168.386C76.5265 164.21 80.8352 160.299 84.4148 156.653C88.0606 152.941 90.8447 149.13 92.767 145.219C94.7557 141.308 95.75 136.966 95.75 132.193C95.75 126.956 94.6231 122.482 92.3693 118.77C90.1818 115.058 87.1326 112.207 83.2216 110.219C79.3106 108.164 74.803 107.136 69.6989 107.136C64.5947 107.136 60.0871 108.164 56.1761 110.219C52.3314 112.274 49.3485 115.29 47.2273 119.267C45.1061 123.244 44.0455 128.083 44.0455 133.784H-8.45455C-8.45455 119.466 -5.23958 107.136 1.19034 96.7954C7.62027 86.4545 16.7017 78.5 28.4347 72.9318C40.1676 67.3636 53.9224 64.5795 69.6989 64.5795C86.0057 64.5795 100.125 67.1979 112.057 72.4347C124.055 77.6051 133.302 84.8968 139.798 94.3097C146.361 103.723 149.642 114.759 149.642 127.42C149.642 135.242 148.018 143.031 144.77 150.787C141.522 158.476 135.688 166.994 127.27 176.341C118.851 185.688 106.886 196.824 91.375 209.75L72.2841 225.659V226.852H151.83V271H-4.47727ZM170.572 111.909V67.3636H347.561V111.909H286.311V271H231.822V111.909H170.572Z" fill="white"/>
</g>
<defs>
<clipPath id="clip0_1_1711">
<rect width="500" height="500" rx="15" fill="white"/>
</clipPath>
</defs>
</svg>
